<?xml version="1.0" encoding="UTF-8" standalone="no"?><!DOCTYPE svg PUBLIC "-//W3C//DTD SVG 1.1//EN" "http://www.w3.org/Graphics/SVG/1.1/DTD/svg11.dtd"><svg width="100%" height="100%" viewBox="0 0 764 97" version="1.1" xmlns="http://www.w3.org/2000/svg" xmlns:xlink="http://www.w3.org/1999/xlink" xml:space="preserve" xmlns:serif="http://www.serif.com/" style="fill-rule:evenodd;clip-rule:evenodd;stroke-linejoin:round;stroke-miterlimit:2;"><g id="forgeplay-studio-svg"><g id="studio-svg"><path id="o" d="M755.118,0.884c-3.148,0.958 -4.885,3.315 -4.883,6.625c0,2.245 0.577,3.636 2.123,5.118c3.134,3.012 8.313,2.007 10.432,-2.026c0.83,-1.58 0.824,-4.613 -0.017,-6.224c-1.447,-2.788 -4.857,-4.343 -7.655,-3.493Zm-1.068,2.837c-1.034,0.63 -2.004,2.462 -2.015,3.799c-0.009,1.279 1.118,3.27 2.209,3.895c0.638,0.366 1.479,0.545 2.564,0.545c2.089,0 3.312,-0.689 4.147,-2.338c0.77,-1.519 0.79,-2.582 0.081,-4.145c-0.762,-1.675 -1.94,-2.323 -4.228,-2.323c-1.338,-0 -2.077,0.152 -2.758,0.567Z"/><path id="i" d="M750.623,20.852l0,2.259l12.685,0l-0.175,-2.108l-12.51,-0.151Z"/><path id="d" d="M754.418,30.249c-0.463,0.202 -1.312,0.888 -1.886,1.523c-1.431,1.586 -1.951,3.512 -1.85,6.841l0.082,2.631l12.369,-0l0.082,-2.358c0.152,-4.348 -0.922,-6.947 -3.469,-8.389c-1.288,-0.729 -3.942,-0.853 -5.328,-0.248Zm0.113,2.497c-1.372,0.916 -1.94,2.228 -1.94,4.492l0,1.898l8.788,-0l-0.132,-2.074c-0.157,-2.44 -0.863,-3.817 -2.308,-4.503c-1.389,-0.66 -3.261,-0.581 -4.408,0.187Z"/><path id="u" d="M750.623,48.355l0,2.588l4.372,-0c5.721,-0 6.592,0.409 6.592,3.095c0,0.913 -0.177,1.343 -0.821,1.987l-0.823,0.821l-9.32,0l0,2.53l4.006,-0.001c4.591,-0.002 5.727,-0.238 7.149,-1.485c1.234,-1.084 1.777,-2.297 1.777,-3.968c0,-1.575 -0.388,-2.616 -1.352,-3.637c-1.465,-1.547 -2.069,-1.705 -7.011,-1.822l-4.569,-0.108Z"/><path id="t" d="M750.812,65.186c-0.104,0.103 -0.189,2.444 -0.189,5.201l0,5.014l1.968,-0l0,-3.924l10.542,-0.153l0,-2.249l-10.542,-0.153l0,-3.923l-0.795,-0c-0.439,-0 -0.883,0.084 -0.984,0.187Z"/><path id="s" d="M757.764,81.259c-1.015,0.639 -1.639,2.028 -2.103,4.692c-0.489,2.809 -1.563,3.632 -2.941,2.253c-0.503,-0.501 -0.691,-0.995 -0.691,-1.808c-0,-1.7 0.436,-2.537 1.56,-3.008c0.891,-0.372 0.995,-0.52 0.917,-1.322c-0.076,-0.792 -0.183,-0.896 -0.863,-0.849c-1.091,0.075 -2.297,1.015 -2.904,2.26c-0.684,1.405 -0.686,4.084 -0.006,5.483c0.981,2.01 3.517,2.81 5.06,1.597c1.026,-0.809 1.437,-1.713 1.968,-4.333c0.633,-3.119 1.698,-3.982 3.135,-2.543c1.338,1.338 0.604,5.028 -1.049,5.262c-0.548,0.078 -0.663,0.282 -0.737,1.324c-0.075,1.047 -0.019,1.205 0.374,1.054c0.253,-0.098 0.638,-0.177 0.852,-0.177c0.841,-0 2.367,-1.733 2.795,-3.17c0.739,-2.487 0.393,-4.413 -1.083,-6.021c-1.15,-1.257 -2.929,-1.545 -4.284,-0.694Z"/></g><g id="forgeplay-svg"><path id="Y" d="M641.809,5.382l-2.131,0.159l15.695,26.817l15.692,26.816l0,35.003l4.006,0.187c2.204,0.103 8.56,0.148 14.127,0.1l10.12,-0.088l0.073,-17.886l0.07,-17.887l15.462,-26.499c8.502,-14.575 15.459,-26.608 15.459,-26.742c0,-0.276 -24.412,-0.278 -28.222,-0.002l-2.496,0.181l-6.618,13.587l-6.62,13.587l1.037,2.095l1.035,2.095l-1.018,1.986l-8.349,-16.886l-8.35,-16.885l-13.421,0.051c-7.382,0.028 -14.382,0.123 -15.551,0.211Z"/><path id="A" d="M592.339,5.328l-2.122,0.094l-15.13,43.212c-8.319,23.767 -15.257,43.691 -15.415,44.277c-0.157,0.585 -0.196,1.154 -0.087,1.265c0.11,0.11 6.506,0.245 14.214,0.299l14.011,0.098l0.54,-1.785c0.295,-0.982 1.656,-5.422 3.022,-9.867l2.485,-8.083l25.341,0.009l2.932,9.41c1.613,5.176 3.033,9.57 3.154,9.765c0.276,0.447 29.757,0.727 29.757,0.283c0,-0.25 -30.255,-86.635 -30.963,-88.412l-0.309,-0.773l-14.655,0.056c-8.06,0.031 -15.611,0.099 -16.775,0.152Zm11.695,35.511c-2.457,7.954 -4.523,14.619 -4.591,14.813c-0.098,0.275 1.409,0.351 6.933,0.351c3.882,-0 7.059,-0.099 7.059,-0.22c-0,-0.12 -1.33,-4.516 -2.952,-9.767c-1.622,-5.251 -2.952,-9.696 -2.952,-9.878c0,-0.181 0.439,-1.729 0.976,-3.439l0.972,-3.108l-0.489,-1.606l-0.486,-1.606l-4.47,14.46Z"/><path id="L" d="M494.449,5.328l-2.179,0.096l0,88.726l3.163,0.182c5.012,0.289 61.721,0.221 61.903,-0.074c0.118,-0.191 4.085,-20.054 4.091,-20.474c-0,-0.039 -9.109,-0.07 -20.241,-0.07l-20.241,-0l-0,-68.594l-12.159,0.056c-6.688,0.031 -13.14,0.1 -14.337,0.152Z"/><path id="P" d="M412.501,5.328l-2.038,0.097l-0,88.752l4.006,0.187c2.204,0.103 8.625,0.148 14.267,0.1l10.261,-0.088l0.146,-27.348l10.329,-0.137c10.997,-0.146 13.367,-0.369 18.557,-1.751c9.763,-2.598 15.698,-7.991 18.166,-16.503c0.371,-1.283 0.815,-3.471 0.984,-4.863c0.394,-3.2 0.405,-12.756 0.02,-15.891c-1.78,-14.51 -10.171,-21.091 -28.664,-22.478c-3.43,-0.257 -40.934,-0.32 -46.034,-0.077Zm26.637,19.47l-0,22.49l5.496,0c5.948,0 8.343,-0.343 10.373,-1.486c2.842,-1.599 3.986,-4.885 3.736,-10.71c-0.216,-5.009 -1.211,-7.278 -3.815,-8.694c-2.271,-1.237 -4.599,-1.589 -10.519,-1.595l-5.271,-0.005Z"/><path id="E" d="M335.895,5.328l-2.179,0.096l0,88.726l3.163,0.182c2.892,0.167 65.431,0.276 65.431,0.115c0,-0.039 0.813,-4.37 1.805,-9.625c0.99,-5.255 1.74,-9.651 1.667,-9.769c-0.073,-0.118 -10.056,-0.215 -22.183,-0.215l-22.052,0l0,-15.738l17.765,-0.073l17.761,-0.072l1.763,-9.277c0.967,-5.103 1.765,-9.499 1.774,-9.769c0.014,-0.464 -1.1,-0.492 -19.525,-0.492l-19.538,-0l0,-14.615l20.014,-0.072l20.01,-0.072l1.763,-9.277c0.967,-5.103 1.765,-9.499 1.774,-9.77c0.014,-0.466 -1.743,-0.488 -33.51,-0.435c-18.439,0.031 -34.506,0.1 -35.703,0.152Z"/><path id="G" d="M288.174,5.027c-7.995,0.248 -15.762,1.389 -20.708,3.041c-13.102,4.378 -18.904,12.65 -20.35,29.015c-0.471,5.328 -0.201,25.959 0.39,29.743c2.673,17.14 10.322,24.251 28.727,26.708c4.903,0.655 17.558,1.047 29.48,0.914c10.168,-0.114 11.161,-0.169 13.219,-0.73c4.95,-1.35 7.205,-3.823 8.2,-8.995c0.321,-1.66 0.399,-5.986 0.399,-22.138l0,-20.076l-18.554,0c-10.205,0 -18.554,0.032 -18.554,0.071c-0,0.038 -0.759,4.055 -1.687,8.925c-0.928,4.87 -1.687,9.013 -1.687,9.207c0,0.271 1.451,0.351 6.326,0.351l6.325,0l-0,12.651l-3.865,-0.003c-5.232,-0.003 -9.93,-0.441 -12.274,-1.144c-1.634,-0.49 -2.191,-0.835 -3.524,-2.178c-1.893,-1.907 -2.676,-3.739 -3.264,-7.639c-0.57,-3.78 -0.568,-22.379 0.003,-26.167c0.968,-6.42 3.172,-8.981 8.873,-10.311c1.884,-0.438 3.874,-0.488 18.996,-0.468l16.896,0.021l1.734,-9.861c0.953,-5.423 1.732,-10.062 1.732,-10.308c-0.006,-0.383 -0.65,-0.475 -4.434,-0.632c-4.09,-0.17 -26.903,-0.168 -32.399,0.003Z"/><path id="R" d="M166.798,5.319l-2.038,0.106l0,88.725l2.996,0.184c1.647,0.101 7.973,0.183 14.056,0.183l11.061,0l-0,-28.956l7.731,0.014l7.211,14.26l7.211,14.26l2.487,0.181c3.178,0.232 27.93,0.296 27.93,0.073c-0,-0.092 -4.179,-7.494 -9.287,-16.449c-5.108,-8.955 -9.35,-16.443 -9.425,-16.641c-0.084,-0.217 0.246,-0.498 0.835,-0.711c0.535,-0.193 1.946,-0.986 3.135,-1.762c5.345,-3.49 8.481,-7.853 10.041,-13.969c0.572,-2.243 0.624,-3.098 0.617,-10.179c-0.008,-6.933 -0.072,-7.999 -0.619,-10.325c-2.617,-11.118 -9.354,-16.428 -23.523,-18.537c-2.676,-0.398 -6.333,-0.472 -25.75,-0.514c-12.447,-0.028 -23.548,-0.002 -24.669,0.057Zm26.075,19.479l-0,21.366l5.411,-0.003c7.727,-0.002 10.576,-0.598 12.529,-2.616c3.213,-3.321 3.308,-12.811 0.16,-16.052c-2.11,-2.173 -4.51,-2.695 -12.389,-2.695l-5.711,0Z"/><path id="O" d="M106.846,2.861c-10.971,0.57 -19.227,2.855 -24.869,6.881c-4.843,3.456 -8.355,9.024 -10.147,16.085c-1.527,6.023 -1.668,8.044 -1.668,23.991c0,12.997 0.062,15.162 0.523,18.133c1.352,8.71 3.516,13.927 7.603,18.326c2.266,2.439 4.486,4.082 7.617,5.638c5.778,2.87 11.833,4.063 23.256,4.581c19.746,0.896 32.064,-2.048 39.44,-9.423c5.043,-5.044 7.759,-11.909 8.844,-22.355c0.36,-3.468 0.36,-26.613 0,-30.08c-0.679,-6.537 -1.829,-11.029 -3.931,-15.36c-4.55,-9.373 -12.494,-14.211 -26.284,-16.007c-3.822,-0.498 -14.546,-0.714 -20.384,-0.41Zm3.517,20.708c-3.015,0.593 -3.832,0.823 -4.981,1.403c-2.721,1.374 -4.268,3.668 -5.22,7.746c-0.423,1.807 -0.482,3.876 -0.482,16.819c0,12.787 0.063,15.041 0.472,16.868c0.63,2.82 1.383,4.497 2.647,5.896c2.113,2.338 4.715,3.256 10.102,3.564c6.992,0.399 11.56,-1.564 13.453,-5.783c1.607,-3.581 1.702,-4.712 1.705,-20.404c0.003,-12.449 -0.06,-14.628 -0.475,-16.543c-1.54,-7.108 -5.274,-9.779 -13.567,-9.705c-1.7,0.015 -3.345,0.078 -3.654,0.139Z"/><path id="F" d="M2.762,5.328l-2.178,0.096l-0,88.726l3.162,0.182c1.74,0.1 8.002,0.183 13.916,0.184l10.753,0.001l0,-33.449l32.189,-0.145l1.585,-8.434c0.872,-4.639 1.664,-8.908 1.76,-9.488l0.176,-1.054l-35.71,-0l0,-16.868l18.844,0c14.821,0 18.871,-0.075 18.97,-0.351c0.198,-0.552 3.511,-18.611 3.511,-19.138c0,-0.438 -2.258,-0.467 -32.399,-0.414c-17.82,0.031 -33.38,0.1 -34.579,0.152Z"/></g></g></svg>