<?xml version="1.0" encoding="UTF-8" standalone="no"?><!DOCTYPE svg PUBLIC "-//W3C//DTD SVG 1.1//EN" "http://www.w3.org/Graphics/SVG/1.1/DTD/svg11.dtd"><svg width="100%" height="100%" viewBox="0 0 521 521" version="1.1" xmlns="http://www.w3.org/2000/svg" xmlns:xlink="http://www.w3.org/1999/xlink" xml:space="preserve" xmlns:serif="http://www.serif.com/" style="fill-rule:evenodd;clip-rule:evenodd;stroke-linejoin:round;stroke-miterlimit:2;"><g id="favicon"><path d="M520.098,520.902l-399.712,-0c-46.975,-49.795 -73.312,-77.712 -120.288,-127.506l0,-392.494l418.993,-0c39.446,41.814 61.562,65.256 101.007,107.069l0,412.931Z" style="fill:#0d1d2c;fill-rule:nonzero;"/><g id="logo"><path id="left-bolt" d="M118.823,174.692l41.549,33.096l5.005,-27.465l36.907,42.741l-39.469,-81.707l-12.128,26.657l-29.299,-37.858l-2.565,44.536Z" style="fill:#f9d503;fill-rule:nonzero;"/><path id="right-bolt" d="M387.782,172.169l-31.787,39.906l26.378,4.808l-41.051,35.447l78.476,-37.908l-25.603,-11.648l36.362,-28.142l-42.775,-2.463Z" style="fill:#f9d503;fill-rule:nonzero;"/><path id="hammer" d="M301.813,146.635l24.95,62.116c1.378,3.43 -0.286,7.326 -3.715,8.703l-66.234,26.605c-3.43,1.377 -7.327,-0.286 -8.704,-3.716l-60.69,-151.096c-1.377,-3.429 0.285,-7.326 3.715,-8.703l66.234,-26.604c0.818,-0.329 1.661,-0.484 2.491,-0.484c2.653,-0 5.163,1.587 6.213,4.199l25.651,63.862l140.47,-56.423c1.298,-0.521 2.639,-0.768 3.957,-0.769c4.212,0 8.197,2.521 9.863,6.668l2.169,5.4c2.187,5.445 -0.453,11.633 -5.899,13.819l-140.471,56.423Z" style="fill:#f9d503;"/><path id="pad" d="M139.849,254.357l-19.735,8.726l-8.769,18.882l-40.099,136.938l58.795,24.131l40.655,-53.131l29.02,6.933l34.393,-11.969l5.042,-0.715l30.63,4.2l4.663,2.047l29.901,20.786l29.815,1.136l24.851,62.113l63.121,-7.409l-1.752,-142.68l-3.363,-20.544l-16.658,-13.717l-0.732,-14.932l-57.319,-7.86l-5.195,15.355l-134.349,-18.426l-0.871,-16.186l-57.319,-7.861l-4.725,14.183Zm23.743,29.809l19.288,2.645l-2.236,16.305l17.199,2.358l-2.699,19.685l-17.2,-2.358l-2.236,16.303l-19.287,-2.645l2.236,-16.305l-17.199,-2.358l2.699,-19.685l17.2,2.359l2.235,-16.304Zm205.75,47.107c-4.909,-0.673 -8.343,-5.198 -7.669,-10.109c0.673,-4.908 5.198,-8.343 10.108,-7.669c4.909,0.672 8.343,5.198 7.67,10.109c-0.617,4.495 -4.464,7.753 -8.878,7.753c-0.406,0 -0.816,-0.027 -1.231,-0.084Zm-19.523,13.925c-4.91,-0.674 -8.344,-5.2 -7.67,-10.109c0.672,-4.909 5.198,-8.343 10.108,-7.67c4.91,0.673 8.344,5.199 7.671,10.108c-0.617,4.496 -4.465,7.755 -8.879,7.755c-0.406,-0 -0.816,-0.027 -1.23,-0.084Zm34.577,4.742c-4.908,-0.672 -8.343,-5.199 -7.669,-10.109c0.672,-4.909 5.198,-8.343 10.109,-7.67c4.909,0.674 8.344,5.198 7.67,10.109c-0.616,4.496 -4.465,7.755 -8.879,7.755c-0.406,0 -0.817,-0.028 -1.231,-0.085Zm-19.577,14.323c-4.91,-0.674 -8.345,-5.201 -7.671,-10.11c0.673,-4.909 5.199,-8.344 10.109,-7.67c4.91,0.673 8.344,5.199 7.671,10.108c-0.617,4.496 -4.465,7.756 -8.879,7.756c-0.406,-0 -0.816,-0.028 -1.23,-0.084Z" style="fill:#f9d503;fill-rule:nonzero;"/></g></g></svg>