<?xml version="1.0" standalone="no"?>
<!DOCTYPE svg PUBLIC "-//W3C//DTD SVG 20010904//EN"
 "http://www.w3.org/TR/2001/REC-SVG-20010904/DTD/svg10.dtd">
<svg version="1.0" xmlns="http://www.w3.org/2000/svg"
 width="700.000000pt" height="700.000000pt" viewBox="0 0 700.000000 700.000000"
 preserveAspectRatio="xMidYMid meet">
<metadata>
Created by potrace 1.14, written by Peter Selinger 2001-2017
</metadata>
<g transform="translate(0.000000,700.000000) scale(0.100000,-0.100000)"
fill="#000000" stroke="none">
<path d="M0 4353 l0 -2638 808 -857 807 -857 2688 0 2687 -1 0 2773 0 2774
-681 721 -680 722 -2815 0 -2814 0 0 -2637z m3545 1905 c18 -17 72 -139 195
-448 94 -233 174 -428 179 -433 5 -5 435 163 956 372 727 292 957 381 990 381
64 0 104 -32 137 -110 15 -36 27 -81 28 -100 0 -41 -28 -92 -64 -115 -13 -9
-444 -185 -958 -391 -513 -206 -937 -379 -942 -384 -5 -5 61 -183 158 -424
100 -251 166 -428 166 -449 0 -22 -8 -41 -23 -55 -30 -29 -912 -382 -953 -382
-17 0 -41 8 -53 18 -27 22 -844 2054 -845 2100 0 20 8 40 21 54 25 25 915 386
955 387 15 1 38 -9 53 -21z m-1715 -1267 c102 -132 189 -239 194 -238 5 2 43
78 84 170 42 92 79 164 83 160 4 -5 113 -226 242 -493 129 -267 244 -505 257
-530 29 -59 34 -64 -240 254 -152 175 -225 254 -230 245 -4 -8 -20 -87 -35
-177 -21 -119 -32 -161 -41 -158 -7 3 -133 100 -279 216 -247 197 -265 214
-265 243 0 18 7 140 15 272 8 132 15 250 15 263 0 13 3 21 8 19 4 -3 90 -113
192 -246z m3914 -339 c27 -7 17 -16 -208 -190 -130 -100 -236 -184 -236 -186
0 -2 74 -36 165 -77 90 -41 165 -76 165 -79 0 -3 -229 -116 -510 -252 -280
-135 -510 -244 -510 -242 0 3 496 434 514 446 6 4 8 9 5 13 -3 3 -79 19 -169
35 -90 16 -165 31 -167 33 -1 2 91 123 207 268 l209 264 253 -13 c139 -7 266
-16 282 -20z m-3414 -933 c206 -28 376 -52 378 -54 2 -1 6 -50 9 -109 3 -58 6
-106 7 -106 1 0 406 -56 901 -124 659 -91 902 -121 907 -113 4 7 22 54 39 104
28 84 33 92 52 88 12 -2 175 -25 362 -50 187 -25 350 -48 363 -50 19 -5 22
-12 22 -59 0 -134 1 -137 121 -237 59 -49 110 -97 113 -107 3 -9 14 -78 25
-152 18 -122 21 -223 31 -1074 6 -517 7 -942 3 -946 -9 -8 -831 -105 -837 -99
-2 2 -77 186 -166 409 -89 223 -165 409 -169 413 -4 4 -96 12 -203 16 -108 5
-202 12 -209 17 -8 4 -100 68 -206 141 -106 74 -211 140 -235 148 -62 20 -425
67 -462 60 -17 -4 -135 -42 -261 -86 l-230 -80 -189 46 c-103 25 -192 45 -197
45 -4 0 -130 -160 -280 -355 -149 -195 -272 -355 -273 -355 -4 0 -780 320
-783 323 -1 2 118 418 266 923 240 819 276 934 329 1045 l59 125 129 56 129
56 34 96 c18 53 36 96 40 96 3 0 175 -23 381 -51z"/>
<path d="M2195 3168 c-2 -7 -9 -53 -15 -103 -6 -49 -13 -92 -16 -94 -2 -3 -44
1 -93 7 -150 20 -135 32 -154 -115 -9 -70 -15 -128 -13 -131 2 -2 53 -11 113
-19 59 -9 109 -17 110 -18 2 -1 -4 -48 -12 -105 -8 -57 -12 -106 -10 -109 6
-5 249 -40 253 -36 2 2 10 50 19 106 8 57 16 105 18 107 2 2 52 -4 111 -12 59
-9 111 -13 114 -9 4 5 13 53 19 108 7 55 15 112 18 126 l5 27 -106 13 c-58 7
-111 16 -117 19 -8 5 -6 37 5 111 8 57 14 104 13 105 -3 3 -228 34 -244 34 -8
0 -15 -6 -18 -12z"/>
<path d="M4916 2771 c-101 -68 -56 -221 64 -221 107 0 158 126 82 203 -39 39
-104 47 -146 18z"/>
<path d="M4634 2566 c-77 -77 -24 -206 83 -206 42 0 92 36 109 77 22 51 11 95
-32 132 -28 25 -44 31 -80 31 -39 0 -51 -5 -80 -34z"/>
<path d="M5135 2530 c-35 -14 -66 -57 -72 -97 -10 -76 43 -133 124 -133 121 0
156 173 47 225 -35 16 -68 18 -99 5z"/>
<path d="M4874 2336 c-106 -46 -96 -194 15 -227 71 -21 151 40 151 116 0 43
-35 94 -75 111 -42 17 -51 17 -91 0z"/>
</g>
</svg>
