<?xml version="1.0" encoding="UTF-8" standalone="no"?><!DOCTYPE svg PUBLIC "-//W3C//DTD SVG 1.1//EN" "http://www.w3.org/Graphics/SVG/1.1/DTD/svg11.dtd"><svg width="100%" height="100%" viewBox="0 0 24 24" version="1.1" xmlns="http://www.w3.org/2000/svg" xmlns:xlink="http://www.w3.org/1999/xlink" xml:space="preserve" xmlns:serif="http://www.serif.com/" style="fill-rule:evenodd;clip-rule:evenodd;stroke-linejoin:round;stroke-miterlimit:2; fill:currentColor" class="fill-current"><path id="task_alt" class="fill-current" d="M12,24c-1.66,0 -3.22,-0.315 -4.68,-0.945c-1.46,-0.63 -2.73,-1.485 -3.81,-2.565c-1.08,-1.08 -1.935,-2.35 -2.565,-3.81c-0.63,-1.46 -0.945,-3.02 -0.945,-4.68c0,-1.66 0.315,-3.22 0.945,-4.68c0.63,-1.46 1.485,-2.73 2.565,-3.81c1.08,-1.08 2.35,-1.935 3.81,-2.565c1.46,-0.63 3.02,-0.945 4.68,-0.945c1.3,0 2.53,0.19 3.69,0.57c1.16,0.38 2.23,0.91 3.21,1.59l-1.74,1.77c-0.76,-0.48 -1.57,-0.855 -2.43,-1.125c-0.86,-0.27 -1.77,-0.405 -2.73,-0.405c-2.66,0 -4.925,0.935 -6.795,2.805c-1.87,1.87 -2.805,4.135 -2.805,6.795c0,2.66 0.935,4.925 2.805,6.795c1.87,1.87 4.135,2.805 6.795,2.805c2.66,0 4.925,-0.935 6.795,-2.805c1.87,-1.87 2.805,-4.135 2.805,-6.795c0,-0.36 -0.02,-0.72 -0.06,-1.08c-0.04,-0.36 -0.1,-0.71 -0.18,-1.05l1.95,-1.95c0.22,0.64 0.39,1.3 0.51,1.98c0.12,0.68 0.18,1.38 0.18,2.1c0,1.66 -0.315,3.22 -0.945,4.68c-0.63,1.46 -1.485,2.73 -2.565,3.81c-1.08,1.08 -2.35,1.935 -3.81,2.565c-1.46,0.63 -3.02,0.945 -4.68,0.945Zm-1.68,-6.48l-5.1,-5.1l1.68,-1.68l3.42,3.42l12,-12.03l1.68,1.68l-13.68,13.71Z" style="fill-rule:nonzero;"/></svg>